<svg width="168" height="26" viewBox="0 0 168 26" fill="none" xmlns="http://www.w3.org/2000/svg">
<path fill-rule="evenodd" clip-rule="evenodd" d="M13.4023 0.796875C6.65363 0.796875 1.1875 6.26301 1.1875 13.0117C1.1875 18.4167 4.68399 22.982 9.53939 24.6005C10.1501 24.7074 10.3792 24.3409 10.3792 24.0203C10.3792 23.7302 10.3639 22.7683 10.3639 21.7453C7.29491 22.3102 6.50095 20.9971 6.25665 20.31C6.11924 19.9589 5.52376 18.8748 5.00463 18.5847C4.57711 18.3557 3.96637 17.7907 4.98936 17.7755C5.95128 17.7602 6.63837 18.661 6.86739 19.0275C7.96673 20.875 9.72261 20.3558 10.425 20.0352C10.5319 19.2412 10.8525 18.7068 11.2037 18.4015C8.48586 18.0961 5.64591 17.0426 5.64591 12.3704C5.64591 11.042 6.11924 9.94273 6.89793 9.08769C6.77578 8.78232 6.34826 7.5303 7.02008 5.85076C7.02008 5.85076 8.04307 5.53012 10.3792 7.10278C11.3564 6.82795 12.3946 6.69053 13.4329 6.69053C14.4711 6.69053 15.5094 6.82795 16.4866 7.10278C18.8227 5.51485 19.8457 5.85076 19.8457 5.85076C20.5175 7.5303 20.09 8.78232 19.9678 9.08769C20.7465 9.94273 21.2198 11.0268 21.2198 12.3704C21.2198 17.0578 18.3646 18.0961 15.6468 18.4015C16.0896 18.7832 16.4713 19.5161 16.4713 20.6612C16.4713 22.2949 16.4561 23.608 16.4561 24.0203C16.4561 24.3409 16.6851 24.7226 17.2958 24.6005C22.1207 22.982 25.6172 18.4015 25.6172 13.0117C25.6172 6.26301 20.151 0.796875 13.4023 0.796875Z" fill="white"/>
<path d="M40.7132 21.3349C39.4046 21.3349 38.2284 21.1324 37.1847 20.7274C36.1565 20.3068 35.2763 19.7148 34.5441 18.9514C33.8275 18.1725 33.2745 17.2456 32.8851 16.1707C32.5112 15.0958 32.3242 13.9041 32.3242 12.5955C32.3242 11.2246 32.5268 10.0095 32.9318 8.95014C33.3524 7.87524 33.9366 6.96391 34.6844 6.21615C35.4321 5.45281 36.3279 4.87641 37.3716 4.48695C38.4154 4.08191 39.576 3.87939 40.8534 3.87939C42.3333 3.87939 43.6341 4.12865 44.7557 4.62715C45.8774 5.11008 46.7731 5.79553 47.443 6.6835C48.1285 7.55588 48.5413 8.58405 48.6815 9.76801H45.5035C45.3633 9.08256 45.0751 8.50616 44.6389 8.03881C44.2183 7.55588 43.6808 7.18979 43.0266 6.94054C42.3878 6.67571 41.6634 6.54329 40.8534 6.54329C39.7785 6.54329 38.836 6.77697 38.0259 7.24432C37.2158 7.69609 36.5927 8.37375 36.1565 9.2773C35.7203 10.1808 35.5022 11.2869 35.5022 12.5955C35.5022 13.5769 35.6191 14.4571 35.8527 15.236C36.102 15.9994 36.4603 16.6381 36.9276 17.1522C37.395 17.6662 37.948 18.0635 38.5867 18.3439C39.241 18.6087 39.9654 18.7411 40.7599 18.7411C41.8037 18.7411 42.7072 18.5542 43.4705 18.1803C44.2339 17.7909 44.8259 17.2378 45.2465 16.5212C45.6671 15.789 45.8774 14.9244 45.8774 13.9274V13.3199L46.7887 14.3948H40.8066V12.1515H49.0086V13.5769C49.0086 14.7609 48.8061 15.8358 48.4011 16.8016C48.0116 17.7519 47.4508 18.562 46.7186 19.2319C46.002 19.9017 45.1296 20.4236 44.1015 20.7975C43.0889 21.1558 41.9594 21.3349 40.7132 21.3349ZM54.9922 21.3349C54.2444 21.3349 53.559 21.2025 52.9358 20.9377C52.3283 20.6573 51.7986 20.2445 51.3468 19.6992C50.9107 19.154 50.5757 18.4841 50.342 17.6896C50.1084 16.8795 49.9915 15.9526 49.9915 14.9089C49.9915 13.4912 50.1941 12.3073 50.5991 11.357C51.0197 10.3912 51.6039 9.66675 52.3517 9.18382C53.115 8.70089 53.9952 8.45943 54.9922 8.45943C55.6776 8.45943 56.2852 8.56847 56.8148 8.78657C57.3601 8.98909 57.8274 9.27729 58.2169 9.65117C58.6064 10.0251 58.9023 10.469 59.1049 10.9831H59.2684L59.3853 8.6931H62.1894V21.1246H59.2684V18.8112H59.1049C58.8089 19.5746 58.3026 20.1899 57.586 20.6573C56.8694 21.1091 56.0048 21.3349 54.9922 21.3349ZM56.0905 18.9514C56.7915 18.9514 57.3679 18.7879 57.8196 18.4607C58.287 18.1336 58.6375 17.713 58.8712 17.1989C59.1049 16.6692 59.2217 16.1162 59.2217 15.5398V14.2546C59.2217 13.6626 59.1049 13.1096 58.8712 12.5955C58.6375 12.0658 58.287 11.6452 57.8196 11.3336C57.3679 11.0065 56.7915 10.8429 56.0905 10.8429C55.4673 10.8429 54.9221 10.9909 54.4547 11.2869C53.9874 11.5829 53.6213 12.0347 53.3565 12.6422C53.0916 13.2342 52.9592 13.9897 52.9592 14.9089C52.9592 15.7968 53.0916 16.5446 53.3565 17.1522C53.6213 17.7597 53.9874 18.2115 54.4547 18.5075C54.9221 18.8035 55.4673 18.9514 56.0905 18.9514ZM63.9197 21.1246V4.0897H66.8406V21.1246H63.9197ZM73.0509 21.3349C72.3031 21.3349 71.6177 21.2025 70.9945 20.9377C70.387 20.6573 69.8573 20.2445 69.4056 19.6992C68.9694 19.154 68.6344 18.4841 68.4008 17.6896C68.1671 16.8795 68.0502 15.9526 68.0502 14.9089C68.0502 13.4912 68.2528 12.3073 68.6578 11.357C69.0784 10.3912 69.6626 9.66675 70.4104 9.18382C71.1737 8.70089 72.0539 8.45943 73.0509 8.45943C73.7363 8.45943 74.3439 8.56847 74.8736 8.78657C75.4188 8.98909 75.8861 9.27729 76.2756 9.65117C76.6651 10.0251 76.961 10.469 77.1636 10.9831H77.3271L77.444 8.6931H80.2481V21.1246H77.3271V18.8112H77.1636C76.8676 19.5746 76.3613 20.1899 75.6447 20.6573C74.9281 21.1091 74.0635 21.3349 73.0509 21.3349ZM74.1492 18.9514C74.8502 18.9514 75.4266 18.7879 75.8784 18.4607C76.3457 18.1336 76.6962 17.713 76.9299 17.1989C77.1636 16.6692 77.2804 16.1162 77.2804 15.5398V14.2546C77.2804 13.6626 77.1636 13.1096 76.9299 12.5955C76.6962 12.0658 76.3457 11.6452 75.8784 11.3336C75.4266 11.0065 74.8502 10.8429 74.1492 10.8429C73.526 10.8429 72.9808 10.9909 72.5134 11.2869C72.0461 11.5829 71.68 12.0347 71.4152 12.6422C71.1503 13.2342 71.0179 13.9897 71.0179 14.9089C71.0179 15.7968 71.1503 16.5446 71.4152 17.1522C71.68 17.7597 72.0461 18.2115 72.5134 18.5075C72.9808 18.8035 73.526 18.9514 74.1492 18.9514ZM81.2773 21.1246L86.021 14.7219L81.7213 8.6931H85.1797L87.9605 12.7123H88.1007L90.858 8.6931H94.1762L89.9701 14.6518L94.6202 21.1246H91.1852L88.0072 16.5913H87.867L84.5488 21.1246H81.2773ZM95.3079 25.027V22.6201H96.6866C97.0605 22.6201 97.372 22.5734 97.6213 22.4799C97.8705 22.3865 98.0808 22.2385 98.2522 22.036C98.4236 21.8334 98.5638 21.5764 98.6728 21.2648L99.3505 19.5123V20.8209L94.2797 8.6931H97.4811L100.028 15.7968L100.496 17.1989H100.612L101.033 15.7968L103.44 8.6931H106.548L101.524 21.9425C101.243 22.737 100.893 23.3601 100.472 23.8119C100.067 24.2637 99.5919 24.5752 99.0467 24.7466C98.517 24.9335 97.9095 25.027 97.224 25.027H95.3079Z" fill="white"/>
<path d="M115.9 21.1247V20.7041C115.9 19.7694 116.055 18.9438 116.367 18.2272C116.679 17.495 117.091 16.8485 117.605 16.2877C118.12 15.7113 118.68 15.1894 119.288 14.722C119.911 14.2547 120.526 13.8107 121.134 13.3901C121.741 12.9695 122.302 12.5489 122.816 12.1282C123.33 11.692 123.743 11.2325 124.055 10.7496C124.366 10.251 124.522 9.6902 124.522 9.06706C124.522 8.47509 124.39 7.961 124.125 7.52481C123.876 7.08861 123.517 6.75368 123.05 6.52C122.598 6.27075 122.069 6.14612 121.461 6.14612C120.807 6.14612 120.238 6.28633 119.755 6.56674C119.272 6.83157 118.898 7.21324 118.634 7.71175C118.384 8.19467 118.275 8.79444 118.306 9.51105H115.946C115.915 8.40498 116.133 7.44691 116.601 6.63684C117.068 5.82677 117.73 5.19584 118.587 4.74407C119.459 4.2923 120.464 4.06641 121.601 4.06641C122.692 4.06641 123.642 4.26893 124.452 4.67397C125.262 5.06343 125.893 5.63204 126.345 6.3798C126.797 7.11198 127.023 7.96879 127.023 8.95022C127.023 9.68241 126.89 10.3445 126.625 10.9365C126.36 11.5285 126.002 12.0737 125.55 12.5722C125.114 13.0551 124.623 13.5069 124.078 13.9275C123.549 14.3326 123.003 14.7298 122.442 15.1193C121.897 15.5087 121.375 15.906 120.877 16.311C120.378 16.7005 119.958 17.1211 119.615 17.5729C119.272 18.0091 119.039 18.4842 118.914 18.9983H127.209V21.1247H115.9ZM134.131 21.3117C133.196 21.3117 132.347 21.1247 131.584 20.7508C130.836 20.3614 130.189 19.8006 129.644 19.0684C129.115 18.3206 128.702 17.4093 128.406 16.3344C128.125 15.2595 127.985 14.0366 127.985 12.6657C127.985 11.2792 128.133 10.0485 128.429 8.97359C128.725 7.89869 129.146 7.00293 129.691 6.28633C130.236 5.55415 130.883 5.0089 131.63 4.6506C132.378 4.27672 133.219 4.08978 134.154 4.08978C135.089 4.08978 135.922 4.28451 136.655 4.67397C137.402 5.04785 138.041 5.60088 138.571 6.33306C139.1 7.06525 139.505 7.96879 139.786 9.04369C140.066 10.1031 140.206 11.3182 140.206 12.6891C140.206 14.0911 140.058 15.3296 139.762 16.4045C139.482 17.4638 139.069 18.3674 138.524 19.1151C137.994 19.8473 137.356 20.4003 136.608 20.7742C135.86 21.1325 135.034 21.3117 134.131 21.3117ZM134.107 19.2553C134.684 19.2553 135.198 19.1307 135.65 18.8814C136.101 18.6322 136.483 18.2427 136.795 17.7131C137.122 17.1834 137.371 16.5058 137.542 15.6801C137.714 14.8389 137.8 13.8419 137.8 12.6891C137.8 11.5207 137.714 10.5237 137.542 9.69798C137.371 8.87233 137.122 8.19467 136.795 7.66501C136.483 7.13535 136.101 6.74589 135.65 6.49664C135.198 6.24738 134.684 6.12276 134.107 6.12276C133.547 6.12276 133.033 6.24738 132.565 6.49664C132.113 6.74589 131.724 7.13535 131.397 7.66501C131.085 8.1791 130.844 8.85675 130.672 9.69798C130.501 10.5237 130.415 11.5207 130.415 12.6891C130.415 13.8419 130.501 14.8389 130.672 15.6801C130.844 16.5058 131.085 17.1834 131.397 17.7131C131.724 18.2427 132.113 18.6322 132.565 18.8814C133.033 19.1307 133.547 19.2553 134.107 19.2553ZM140.878 21.1247V20.7041C140.878 19.7694 141.034 18.9438 141.346 18.2272C141.657 17.495 142.07 16.8485 142.584 16.2877C143.098 15.7113 143.659 15.1894 144.266 14.722C144.89 14.2547 145.505 13.8107 146.113 13.3901C146.72 12.9695 147.281 12.5489 147.795 12.1282C148.309 11.692 148.722 11.2325 149.033 10.7496C149.345 10.251 149.501 9.6902 149.501 9.06706C149.501 8.47509 149.368 7.961 149.104 7.52481C148.854 7.08861 148.496 6.75368 148.029 6.52C147.577 6.27075 147.047 6.14612 146.44 6.14612C145.785 6.14612 145.217 6.28633 144.734 6.56674C144.251 6.83157 143.877 7.21324 143.612 7.71175C143.363 8.19467 143.254 8.79444 143.285 9.51105H140.925C140.894 8.40498 141.112 7.44691 141.579 6.63684C142.047 5.82677 142.709 5.19584 143.565 4.74407C144.438 4.2923 145.443 4.06641 146.58 4.06641C147.67 4.06641 148.621 4.26893 149.431 4.67397C150.241 5.06343 150.872 5.63204 151.323 6.3798C151.775 7.11198 152.001 7.96879 152.001 8.95022C152.001 9.68241 151.869 10.3445 151.604 10.9365C151.339 11.5285 150.981 12.0737 150.529 12.5722C150.093 13.0551 149.602 13.5069 149.057 13.9275C148.527 14.3326 147.982 14.7298 147.421 15.1193C146.876 15.5087 146.354 15.906 145.855 16.311C145.357 16.7005 144.936 17.1211 144.594 17.5729C144.251 18.0091 144.017 18.4842 143.893 18.9983H152.188V21.1247H140.878ZM158.806 21.335C157.622 21.335 156.601 21.1092 155.744 20.6574C154.888 20.2056 154.226 19.5747 153.758 18.7646C153.291 17.9545 153.057 17.012 153.057 15.9371H155.417C155.417 16.5914 155.55 17.1678 155.815 17.6663C156.095 18.1648 156.492 18.5543 157.006 18.8347C157.52 19.1151 158.12 19.2553 158.806 19.2553C159.507 19.2553 160.106 19.1307 160.605 18.8814C161.119 18.6322 161.516 18.2817 161.797 17.8299C162.077 17.3626 162.217 16.8251 162.217 16.2176C162.217 15.7502 162.139 15.3374 161.984 14.9791C161.843 14.6208 161.633 14.3248 161.353 14.0911C161.088 13.8574 160.769 13.6861 160.395 13.577C160.021 13.4524 159.6 13.3901 159.133 13.3901H157.287V11.544H158.993C159.647 11.544 160.192 11.4272 160.628 11.1935C161.064 10.9443 161.392 10.6171 161.61 10.2121C161.843 9.79146 161.96 9.31632 161.96 8.78665C161.96 8.22583 161.828 7.75069 161.563 7.36123C161.314 6.9562 160.955 6.65242 160.488 6.4499C160.036 6.24738 159.491 6.14612 158.852 6.14612C158.167 6.14612 157.575 6.28633 157.076 6.56674C156.594 6.83157 156.22 7.20545 155.955 7.68838C155.706 8.17131 155.573 8.73992 155.558 9.39421H153.197C153.197 8.3193 153.431 7.3846 153.898 6.59011C154.381 5.78003 155.051 5.1569 155.908 4.7207C156.78 4.28451 157.793 4.06641 158.946 4.06641C159.787 4.06641 160.543 4.17546 161.212 4.39356C161.882 4.59608 162.459 4.89207 162.942 5.28152C163.425 5.67098 163.791 6.13833 164.04 6.68358C164.305 7.22882 164.437 7.83637 164.437 8.50624C164.437 9.12938 164.328 9.69799 164.11 10.2121C163.892 10.7262 163.588 11.1624 163.199 11.5207C162.809 11.879 162.35 12.1438 161.82 12.3152V12.4554C162.443 12.5956 162.965 12.8526 163.386 13.2265C163.806 13.6004 164.126 14.06 164.344 14.6052C164.577 15.1349 164.694 15.7424 164.694 16.4279C164.694 17.4093 164.445 18.2661 163.946 18.9983C163.464 19.7305 162.778 20.3069 161.89 20.7275C161.018 21.1325 159.99 21.335 158.806 21.335Z" fill="white"/>
</svg>
