<svg width="10" height="10" viewBox="0 0 10 10" fill="none" xmlns="http://www.w3.org/2000/svg">
<path d="M0.220317 0.719814C0.360942 0.579363 0.551566 0.500474 0.750317 0.500474C0.949067 0.500474 1.13969 0.579363 1.28032 0.719814L4.50032 3.93981L7.72032 0.719814C7.81199 0.621089 7.92859 0.548918 8.05784 0.510904C8.18709 0.47289 8.3242 0.47044 8.45472 0.503813C8.58525 0.537187 8.70435 0.605147 8.79949 0.700534C8.89463 0.795921 8.96228 0.915204 8.99532 1.04581C9.02873 1.17619 9.0264 1.31316 8.98857 1.44233C8.95073 1.57149 8.87879 1.68807 8.78032 1.77981L5.56032 4.99981L8.78032 8.21981C8.87904 8.31149 8.95121 8.42809 8.98923 8.55734C9.02724 8.68659 9.02969 8.8237 8.99632 8.95422C8.96294 9.08474 8.89498 9.20385 8.7996 9.29899C8.70421 9.39413 8.58493 9.46178 8.45432 9.49481C8.32394 9.52823 8.18697 9.5259 8.05781 9.48807C7.92864 9.45023 7.81206 9.37829 7.72032 9.27981L4.50032 6.05981L1.28032 9.27981C1.13806 9.41222 0.950003 9.48433 0.755686 9.48097C0.561369 9.47761 0.37592 9.39906 0.238317 9.26181C0.101073 9.12421 0.0225179 8.93876 0.0191612 8.74444C0.0158045 8.55013 0.087908 8.36208 0.220317 8.21981L3.44032 4.99981L0.220317 1.77981C0.0798662 1.63919 0.000976562 1.44856 0.000976562 1.24981C0.000976562 1.05106 0.0798662 0.860439 0.220317 0.719814Z" fill="#58A6FF"/>
</svg>
