<svg width="15" height="17" viewBox="0 0 15 17" fill="none" xmlns="http://www.w3.org/2000/svg">
<path d="M7.28097 16.5C7.76822 16.5002 8.23878 16.3225 8.60427 16.0002C8.96977 15.678 9.20506 15.2334 9.26597 14.75C9.28297 14.613 9.16897 14.5 9.03097 14.5H5.53097C5.39297 14.5 5.27897 14.613 5.29597 14.75C5.35687 15.2334 5.59217 15.678 5.95766 16.0002C6.32316 16.3225 6.79371 16.5002 7.28097 16.5ZM2.28097 5.5C2.28097 4.17392 2.80775 2.90215 3.74543 1.96447C4.68312 1.02678 5.95488 0.5 7.28097 0.5C8.60705 0.5 9.87882 1.02678 10.8165 1.96447C11.7542 2.90215 12.281 4.17392 12.281 5.5V8.447C12.281 8.497 12.296 8.545 12.323 8.586L14.026 11.141C14.1777 11.3697 14.2647 11.6352 14.2777 11.9093C14.2906 12.1835 14.229 12.456 14.0995 12.698C13.97 12.9399 13.7773 13.1423 13.542 13.2835C13.3066 13.4247 13.0374 13.4995 12.763 13.5H1.79897C1.52395 13.5007 1.25393 13.4265 1.01782 13.2855C0.781724 13.1444 0.588439 12.9418 0.458671 12.6993C0.328902 12.4568 0.26754 12.1836 0.281156 11.9089C0.294773 11.6343 0.382854 11.3685 0.535967 11.14L2.23897 8.586C2.26614 8.54472 2.28073 8.49642 2.28097 8.447V5.5ZM7.28097 2C6.35271 2 5.46247 2.36875 4.80609 3.02513C4.14972 3.6815 3.78097 4.57174 3.78097 5.5V8.447C3.78097 8.793 3.67897 9.13 3.48697 9.417L1.78397 11.973C1.78194 11.9759 1.78089 11.9794 1.78097 11.983L1.78197 11.989C1.78197 11.991 1.78397 11.993 1.78597 11.995L1.79197 11.999L1.79897 12H12.763L12.77 11.999L12.776 11.995L12.78 11.989L12.781 11.982C12.781 11.9784 12.78 11.9749 12.778 11.972L11.075 9.418C10.8832 9.13088 10.7808 8.7933 10.781 8.448V5.5C10.781 4.57174 10.4122 3.6815 9.75584 3.02513C9.09946 2.36875 8.20922 2 7.28097 2Z" fill="#F0F6FC"/>
</svg>
