<svg width="12" height="12" viewBox="0 0 12 12" fill="none" xmlns="http://www.w3.org/2000/svg">
<path d="M6.03125 0.5C6.23016 0.5 6.42093 0.579018 6.56158 0.71967C6.70223 0.860322 6.78125 1.05109 6.78125 1.25V5.5H11.0312C11.2302 5.5 11.4209 5.57902 11.5616 5.71967C11.7022 5.86032 11.7812 6.05109 11.7812 6.25C11.7812 6.44891 11.7022 6.63968 11.5616 6.78033C11.4209 6.92098 11.2302 7 11.0312 7H6.78125V11.25C6.78125 11.4489 6.70223 11.6397 6.56158 11.7803C6.42093 11.921 6.23016 12 6.03125 12C5.83234 12 5.64157 11.921 5.50092 11.7803C5.36027 11.6397 5.28125 11.4489 5.28125 11.25V7H1.03125C0.832338 7 0.641572 6.92098 0.50092 6.78033C0.360268 6.63968 0.28125 6.44891 0.28125 6.25C0.28125 6.05109 0.360268 5.86032 0.50092 5.71967C0.641572 5.57902 0.832338 5.5 1.03125 5.5H5.28125V1.25C5.28125 1.05109 5.36027 0.860322 5.50092 0.71967C5.64157 0.579018 5.83234 0.5 6.03125 0.5Z" fill="#F0F6FC"/>
</svg>
